<svg xmlns="http://www.w3.org/2000/svg" viewBox="0 0 1000 680"><defs><pattern id="grid" width="34" height="34" patternUnits="userSpaceOnUse"><path d="M34 0H0V34" fill="none" stroke="#16372e"/></pattern><linearGradient id="earth" x1="0" y1="0" x2="1" y2="1"><stop stop-color="#286d5a"/><stop offset="1" stop-color="#0d2922"/></linearGradient><linearGradient id="f" x1="0" y1="0" x2="0" y2="1"><stop stop-color="#ffc857"/><stop offset="1" stop-color="#ff806f" stop-opacity="0"/></linearGradient><filter id="glow"><feGaussianBlur stdDeviation="7" result="b"/><feMerge><feMergeNode in="b"/><feMergeNode in="SourceGraphic"/></feMerge></filter></defs><style>.l{fill:none;stroke:#72efc6;stroke-width:3}.d{fill:#153c31;stroke:#55937e;stroke-width:2}.p{fill:#245987;stroke:#60cceb;stroke-width:2}.g{fill:#ffc857;stroke:#fff0bb;stroke-width:2}.t{font-family:Arial,sans-serif;font-size:11px;font-weight:700;fill:#72efc6;letter-spacing:1px}.s{font-family:Arial,sans-serif;font-size:10px;font-weight:500;fill:#73998c}</style><defs><filter id="shadow"><feDropShadow dx="0" dy="12" stdDeviation="12" flood-opacity=".45"/></filter></defs><rect width="1000" height="680" rx="24" fill="#081512"/><rect width="1000" height="680" fill="url(#grid)" opacity=".5"/><text x="35" y="38" class="t">MADAR · INTERACTIVE SATELLITE ANATOMY</text><text x="35" y="61" class="s">GENERIC THREE-AXIS-STABILIZED SPACECRAFT · NOT TO SCALE</text>
<g transform="translate(500 310)" filter="url(#shadow)">
 <rect x="-150" y="-125" width="300" height="270" rx="18" fill="#173d33" stroke="#82b5a4" stroke-width="3"/>
 <path d="M-150-50h300M-150 48h300M-52-125v270M55-125v270" stroke="#386d5c" stroke-width="2"/>
 <rect x="-95" y="-92" width="190" height="80" rx="10" fill="#a66b43" stroke="#ffc857" stroke-width="3"/><text x="-62" y="-48" font-family="Arial" font-size="16" fill="#fff0b4">PAYLOAD</text>
 <rect x="-425" y="-65" width="275" height="125" rx="5" class="p"/><path d="M-380-65v125M-330-65v125M-280-65v125M-230-65v125M-180-65v125" stroke="#9bd9ef"/>
 <rect x="150" y="-65" width="275" height="125" rx="5" class="p"/><path d="M195-65v125M245-65v125M295-65v125M345-65v125M395-65v125" stroke="#9bd9ef"/>
 <path d="M0-125v-75" class="l"/><path d="M-68-200Q0-290 68-200Q0-162-68-200Z" fill="#d9e9e3" stroke="#fff" stroke-width="3"/><circle cy="-205" r="7" class="g"/>
 <rect x="-125" y="65" width="68" height="48" rx="6" fill="#23302e" stroke="#b9a1ff"/><rect x="-38" y="65" width="75" height="48" rx="6" fill="#263b35" stroke="#72efc6"/><rect x="57" y="65" width="68" height="48" rx="6" fill="#3b2f25" stroke="#ff9e64"/>
 <circle cx="-92" cy="18" r="25" fill="#243a35" stroke="#ffc857"/><circle cx="-92" cy="18" r="12" fill="none" stroke="#ffc857"/>
 <rect x="55" y="0" width="75" height="42" rx="6" fill="#1d3530" stroke="#60cceb"/>
 <path d="M-55 145-82 205h45L0 145l37 60h45l-27-60" fill="#adbfb9" stroke="#eefbf7"/><path d="M-25 205Q0 285 25 205" fill="url(#f)"/>
 <rect x="135" y="-100" width="13" height="205" fill="#d8e8e2"/><path d="M140-85h45M140 85h45" stroke="#d8e8e2"/><path d="M-148-100h-13v205h13" fill="#d8e8e2"/>
</g>
<!-- leaders and numbered labels -->
<g font-family="Arial" font-weight="700" font-size="12" text-anchor="middle">
 <circle cx="500" cy="210" r="18" fill="#102a23" stroke="#72efc6" stroke-width="2"/><text x="500" y="214" fill="#72efc6">01</text><circle cx="120" cy="300" r="18" fill="#102a23" stroke="#72efc6" stroke-width="2"/><text x="120" y="304" fill="#72efc6">02</text><circle cx="500" cy="80" r="18" fill="#102a23" stroke="#72efc6" stroke-width="2"/><text x="500" y="84" fill="#72efc6">03</text><circle cx="775" cy="160" r="18" fill="#102a23" stroke="#72efc6" stroke-width="2"/><text x="775" y="164" fill="#72efc6">04</text><circle cx="255" cy="420" r="18" fill="#102a23" stroke="#72efc6" stroke-width="2"/><text x="255" y="424" fill="#72efc6">05</text><circle cx="360" cy="540" r="18" fill="#102a23" stroke="#72efc6" stroke-width="2"/><text x="360" y="544" fill="#72efc6">06</text><circle cx="500" cy="520" r="18" fill="#102a23" stroke="#72efc6" stroke-width="2"/><text x="500" y="524" fill="#72efc6">07</text><circle cx="745" cy="430" r="18" fill="#102a23" stroke="#72efc6" stroke-width="2"/><text x="745" y="434" fill="#72efc6">08</text><circle cx="595" cy="600" r="18" fill="#102a23" stroke="#72efc6" stroke-width="2"/><text x="595" y="604" fill="#72efc6">09</text><circle cx="830" cy="530" r="18" fill="#102a23" stroke="#72efc6" stroke-width="2"/><text x="830" y="534" fill="#72efc6">10</text>
</g>
<g fill="none" stroke="#4e8975" stroke-width="2" stroke-dasharray="6 5"><path d="M500 228v35"/><path d="M138 300h82"/><path d="M500 98v45"/><path d="M757 160l-95 70"/><path d="M273 420l135-82"/><path d="M378 540l45-130"/><path d="M500 502v-95"/><path d="M727 430l-120-70"/><path d="M577 600l-48-120"/><path d="M812 530 640 400"/></g>
</svg>