<svg xmlns="http://www.w3.org/2000/svg" viewBox="0 0 760 430"><defs><pattern id="grid" width="34" height="34" patternUnits="userSpaceOnUse"><path d="M34 0H0V34" fill="none" stroke="#16372e"/></pattern><linearGradient id="earth" x1="0" y1="0" x2="1" y2="1"><stop stop-color="#286d5a"/><stop offset="1" stop-color="#0d2922"/></linearGradient><linearGradient id="f" x1="0" y1="0" x2="0" y2="1"><stop stop-color="#ffc857"/><stop offset="1" stop-color="#ff806f" stop-opacity="0"/></linearGradient><filter id="glow"><feGaussianBlur stdDeviation="7" result="b"/><feMerge><feMergeNode in="b"/><feMergeNode in="SourceGraphic"/></feMerge></filter></defs><style>.l{fill:none;stroke:#72efc6;stroke-width:3}.d{fill:#153c31;stroke:#55937e;stroke-width:2}.p{fill:#245987;stroke:#60cceb;stroke-width:2}.g{fill:#ffc857;stroke:#fff0bb;stroke-width:2}.t{font-family:Arial,sans-serif;font-size:11px;font-weight:700;fill:#72efc6;letter-spacing:1px}.s{font-family:Arial,sans-serif;font-size:10px;font-weight:500;fill:#73998c}</style><rect width="760" height="430" rx="22" fill="#081512"/><rect width="760" height="430" fill="url(#grid)" opacity=".55"/><circle cx="650" cy="40" r="2" fill="#72efc6"/><circle cx="710" cy="110" r="1.5" fill="#d9fff2"/><text x="30" y="34" class="t">MADAR · SATELLITE ENCYCLOPEDIA</text><text x="30" y="57" class="s">EARTH OBSERVATION</text><g transform="translate(395 165) scale(0.92)"><rect x="-45" y="0" width="90" height="105" rx="9" class="d"/><path d="M-30-35h60v40h-60z" class="g"/><rect x="-175" y="28" width="130" height="50" class="p"/><path d="M-157 28v50M-130 28v50M-103 28v50M-76 28v50" stroke="#9ed8ea"/><rect x="45" y="28" width="130" height="50" class="p"/><path d="M70 28v50M97 28v50M124 28v50M151 28v50" stroke="#9ed8ea"/><path d="M0 105v45" class="l"/><circle cy="158" r="9" class="g"/></g><path d="M365 270 245 405M425 270l115 135" fill="#72efc6" fill-opacity=".08" stroke="#72efc6" stroke-dasharray="8 7"/><path d="M120 405q260-110 520 0" fill="none" stroke="#4f8f79" stroke-width="4"/><rect x="285" y="365" width="210" height="28" rx="4" fill="#173d33" stroke="#72efc6"/><text x="305" y="384" class="s">MULTISPECTRAL SWATH</text></svg>